<svg width="116" height="92" viewBox="0 0 116 92" fill="none" xmlns="http://www.w3.org/2000/svg">
<path d="M34.7872 77.2624C34.9308 77.0656 35.5222 76.3517 37.2958 77.4772C38.715 78.3779 38.9865 81.7242 38.9448 83.2849C38.9143 83.8249 38.8183 84.8635 38.6487 85.7044C39.1808 86.3673 39.4995 87.2059 39.4995 88.119C39.4995 90.2626 37.7474 92 35.5861 92C33.425 91.9998 31.6727 90.2624 31.6726 88.119C31.6726 86.1677 33.125 84.5534 35.0159 84.2794C35.0744 82.795 35.0277 80.9207 34.5901 80.1756C33.8553 78.9245 34.6438 77.459 34.7872 77.2624Z" fill="#73A9FF"/>
<path d="M45.7935 80.3815C47.1201 79.3327 48.0835 79.8745 48.3963 80.2753C48.6902 80.6516 50.6155 83.768 50.4888 85.231C51.2862 85.9416 51.7874 86.9723 51.7874 88.119C51.7873 90.2626 50.0352 92 47.8739 92C45.7128 91.9998 43.9606 90.2625 43.9605 88.119C43.9605 86.408 45.0775 84.9564 46.6273 84.4399C45.8519 83.2766 44.8055 81.1626 45.7935 80.3815Z" fill="#73A9FF"/>
<path d="M65.5303 80.4252C65.7391 80.0258 66.0841 79.1612 67.8492 79.7371C69.0492 80.1287 69.8694 83.3766 70.2532 85.6622C70.8054 86.3314 71.1365 87.1869 71.1365 88.119C71.1364 90.2626 69.3843 92 67.223 92C65.0618 91.9999 63.3096 90.2625 63.3096 88.119C63.3096 86.3027 64.5677 84.7773 66.2668 84.354C66.2241 83.9007 66.1162 83.3133 65.8782 82.7685C65.4083 81.6922 65.3213 80.8245 65.5303 80.4252Z" fill="#73A9FF"/>
<path d="M75.6639 80.3288C75.7447 79.5446 78.2314 78.1692 79.8036 81.6573C80.3928 82.964 80.8174 84.0629 81.1152 84.9198C82.1404 85.6196 82.8128 86.7913 82.8128 88.119C82.8127 90.2626 81.0606 92 78.8993 92C76.7381 91.9999 74.9859 90.2625 74.9858 88.119C74.9858 86.5413 75.9353 85.1839 77.2982 84.5769C77.0335 84.0344 76.6793 83.3869 76.2738 82.8091C75.3754 81.529 75.5836 81.1129 75.6639 80.3288Z" fill="#73A9FF"/>
<path d="M96.4672 79.3042C98.1427 79.5377 99.1394 83.1222 99.5429 85.5204C100.168 86.2084 100.549 87.1197 100.549 88.119C100.549 90.2626 98.7972 92 96.636 92C94.4747 92 92.7226 90.2626 92.7225 88.119C92.7225 86.3698 93.8893 84.8908 95.4931 84.4059C95.3911 83.8036 95.1516 82.9597 94.6131 81.8234C93.6865 79.8682 95.463 79.3293 96.4672 79.3042Z" fill="#73A9FF"/>
<path d="M24.5425 78.0008C24.9557 77.6746 25.3005 77.3138 26.5572 77.6572C27.8137 78.0007 27.8313 79.9058 27.6765 80.5411C27.526 81.158 26.6763 84.5431 24.0258 86.7978C24.094 87.0849 24.1312 87.3842 24.1312 87.6919C24.1311 89.8353 22.379 91.5728 20.2178 91.5728C18.0567 91.5727 16.3045 89.8352 16.3043 87.6919C16.3043 85.5484 18.0565 83.8102 20.2178 83.8101C20.7555 83.8101 21.2681 83.9178 21.7345 84.1125C22.0634 83.7066 22.4349 83.0776 22.7694 82.1379C23.6128 79.7696 24.1293 78.3276 24.5425 78.0008Z" fill="#73A9FF"/>
<path fill-rule="evenodd" clip-rule="evenodd" d="M51.9537 52.6287C54.4029 47.1498 59.239 46.2233 62.7021 52.6287C65.2673 57.3736 72.069 71.7288 70.3165 75.1226C67.0659 81.4173 63.4338 73.9601 62.024 69.4446C59.0378 70.9146 53.9439 70.4649 51.7703 70.0566C50.8026 73.881 49.0339 76.1884 48.2705 76.8636C46.7684 77.6334 43.7652 78.3624 43.765 75.1226C43.9244 69.2705 47.5055 61.8849 50.1847 56.3606C50.8526 54.9835 51.465 53.722 51.9537 52.6287ZM57.2192 57.2724C56.177 59.3013 54.1125 63.5245 54.1922 64.1881C55.5392 64.3871 58.5463 64.5595 59.7968 63.6572C59.2537 62.0154 57.9775 58.44 57.2192 57.2724Z" fill="#73A9FF"/>
<path d="M94.2765 46.9978C98.4118 47.0404 100.103 57.5027 100.432 62.7283C100.752 66.5102 101.939 73.3341 100.805 75.2166C100.219 76.3592 98.0332 78.1665 96.5143 76.2533C94.9957 74.3402 94.2683 73.3326 92.6041 61.6551C91.9058 65.289 89.6855 72.4811 86.3896 72.1802C83.0937 71.8793 81.0955 65.9716 80.5085 63.0558C80.0264 68.8144 78.1068 79.6863 74.2834 77.1027C70.4604 74.5189 73.52 58.9169 75.5276 51.4388C75.914 50.2021 77.3354 47.9675 79.9302 48.9237C82.5252 49.88 85.3179 56.3636 86.3896 59.4861C87.2956 55.3054 90.1414 46.9552 94.2765 46.9978Z" fill="#73A9FF"/>
<path d="M102.598 49.6702C103.273 47.6322 109.74 47.9297 112.889 48.3336C113.727 48.5301 115.461 49.2513 115.7 50.561C115.938 51.8707 113.384 52.2112 112.077 52.2178C111.005 57.5421 112.172 68.0179 112.889 72.5904C113.798 72.2916 115.689 72.1639 115.987 74.0421C116.284 75.92 111.547 76.6157 109.141 76.7291C107.427 76.7702 103.857 76.5254 103.287 75.2166C102.717 73.9078 105.175 73.3224 106.474 73.1934C105.338 70.1163 105.441 61.1504 106.018 52.2178C104.597 52.2178 101.923 51.7082 102.598 49.6702Z" fill="#73A9FF"/>
<path d="M9.59266 0C12.8267 0 15.4486 2.44097 15.4486 5.45182C15.4486 6.95253 14.7968 8.3113 13.7429 9.2971C13.748 9.302 13.7533 9.30678 13.7584 9.3117C17.5894 13.0055 18.2146 19.5421 18.0481 22.3487C19.9727 21.3528 23.8883 20.7721 25.6058 20.606C25.2398 16.3327 27.6785 11.7189 29.5484 9.07663C28.8712 8.2116 28.4705 7.14152 28.4705 5.98273C28.4705 3.1073 30.9361 0.77665 33.9777 0.776515C37.0195 0.776515 39.4857 3.10721 39.4858 5.98273C39.4858 8.85826 37.0195 11.1898 33.9777 11.1898C33.5517 11.1897 33.1374 11.1418 32.7392 11.0552C30.4818 14.4004 29.6686 18.4612 29.4422 20.8549C32.7558 20.855 38.1802 22.7566 36.1425 28.1572C35.0684 30.4081 33.1507 30.1465 31.3077 29.895C30.8766 29.8362 30.4496 29.7777 30.0383 29.7524C25.606 29.4782 20.839 30.4847 17.3636 33.8351C13.7967 37.2734 8.21708 43.5214 11.2318 55.5443C12.3584 61.4582 20.0673 65.2759 23.3047 65.2759C29.2309 65.2759 33.5804 64.7335 32.6289 57.0074C32.608 56.9213 32.5932 56.8375 32.5786 56.7577C32.4433 56.0098 32.3692 55.6052 28.1558 56.6896C26.4652 57.2901 22.0545 57.7934 21.4709 52.8962C21.2407 49.3716 24.8108 48.8908 30.8453 48.1455C39.2213 47.1109 44.2547 48.6054 41.3829 64.7336C40.8138 67.9294 38.5552 75.6308 26.1062 75.6308C24.2865 75.7125 19.6305 75.4428 15.5622 73.7097C9.6031 71.764 -1.80397 63.4694 0.242548 45.8565C0.902288 40.6672 4.59465 29.0953 14.086 24.3232C14.5512 22.3696 14.3879 17.1058 10.4029 10.8493C10.138 10.8835 9.86767 10.9036 9.59266 10.9036C6.35864 10.9036 3.73667 8.46265 3.73667 5.45182C3.73668 2.44098 6.35865 1.83439e-05 9.59266 0Z" fill="#73A9FF"/>
<path d="M21.2462 38.9084C22.7074 38.9084 23.892 40.066 23.892 41.4933C23.8918 42.9205 22.7073 44.0773 21.2462 44.0774C19.7851 44.0774 18.6007 42.9205 18.6005 41.4933C18.6005 40.066 19.785 38.9084 21.2462 38.9084Z" fill="#73A9FF"/>
<path d="M33.4611 38.2575C34.9016 38.2575 36.0694 39.4129 36.0695 40.8384C36.0695 42.2639 34.9017 43.42 33.4611 43.42C32.0205 43.4199 30.8526 42.2639 30.8526 40.8384C30.8528 39.4129 32.0206 38.2576 33.4611 38.2575Z" fill="#73A9FF"/>
</svg>
