<svg width="37" height="40" viewBox="0 0 37 40" fill="none" xmlns="http://www.w3.org/2000/svg">
<path fill-rule="evenodd" clip-rule="evenodd" d="M18.0851 25.8C21.7329 25.8 25.0352 23.55 26.8094 20C25.0352 16.45 21.7329 14.2 18.0851 14.2C14.4373 14.2 11.135 16.45 9.36086 20C11.135 23.55 14.4373 25.8 18.0851 25.8ZM18.0851 13C22.4328 13 26.1981 15.848 28.0319 20C26.1981 24.152 22.4328 27 18.0851 27C13.7375 27 9.97214 24.152 8.13831 20C9.97214 15.848 13.7375 13 18.0851 13ZM18.0851 22.8C18.7566 22.8 19.4006 22.505 19.8754 21.9799C20.3503 21.4548 20.617 20.7426 20.617 20C20.617 19.2574 20.3503 18.5452 19.8754 18.0201C19.4006 17.495 18.7566 17.2 18.0851 17.2C17.4136 17.2 16.7696 17.495 16.2948 18.0201C15.82 18.5452 15.5532 19.2574 15.5532 20C15.5532 20.7426 15.82 21.4548 16.2948 21.9799C16.7696 22.505 17.4136 22.8 18.0851 22.8ZM18.0851 24C17.1258 24 16.2058 23.5786 15.5275 22.8284C14.8492 22.0783 14.4681 21.0609 14.4681 20C14.4681 18.9391 14.8492 17.9217 15.5275 17.1716C16.2058 16.4214 17.1258 16 18.0851 16C19.0444 16 19.9644 16.4214 20.6427 17.1716C21.3211 17.9217 21.7021 18.9391 21.7021 20C21.7021 21.0609 21.3211 22.0783 20.6427 22.8284C19.9644 23.5786 19.0444 24 18.0851 24Z" fill="#6D6F79"/>
</svg>
