<svg width="37" height="40" viewBox="0 0 37 40" fill="none" xmlns="http://www.w3.org/2000/svg">
<path fill-rule="evenodd" clip-rule="evenodd" d="M24.1165 24.9762L26.6077 27.7318L25.84 28.58L10.7154 11.8502L11.4813 11L14.063 13.8556C15.3109 13.3035 16.6672 13.0005 18.0851 13.0005C22.4328 13.0005 26.1981 15.8491 28.0319 20.002C27.1473 22.0138 25.7962 23.7302 24.1165 24.9762ZM14.9076 14.7909L16.4122 16.4552C17.0949 16.0605 17.8737 15.9171 18.6351 16.046C19.3966 16.1749 20.1009 16.5693 20.6456 17.1718C21.1903 17.7743 21.5469 18.5534 21.6634 19.3957C21.7799 20.2379 21.6503 21.0994 21.2934 21.8545L23.3325 24.11C24.7558 23.1098 25.9585 21.7064 26.8094 20.003C25.0352 16.4512 21.7329 14.2007 18.0851 14.2007C17.0037 14.2015 15.9299 14.4009 14.9076 14.7909ZM20.4705 20.9443C20.6319 20.4449 20.6617 19.905 20.5566 19.3876C20.4515 18.8702 20.2157 18.3964 19.8767 18.0214C19.5376 17.6464 19.1093 17.3855 18.6415 17.2692C18.1737 17.1529 17.6857 17.186 17.2342 17.3644L20.4705 20.9443ZM22.1072 26.1494C20.8594 26.7016 19.503 27.0046 18.0851 27.0046C13.7375 27.0046 9.97214 24.156 8.13831 20.003C9.02296 17.9913 10.374 16.2749 12.0537 15.0289L12.8377 15.8961C11.3859 16.9207 10.1903 18.3327 9.36086 20.002C11.135 23.5529 14.4373 25.8034 18.0851 25.8034C19.1665 25.8026 20.2403 25.6032 21.2627 25.2132L22.1072 26.1494ZM14.8777 18.1516L15.6997 19.0618C15.5383 19.5612 15.5085 20.1011 15.6136 20.6185C15.7187 21.1359 15.9545 21.6097 16.2936 21.9847C16.6326 22.3597 17.0609 22.6206 17.5287 22.7369C17.9965 22.8532 18.4845 22.8201 18.936 22.6416L19.7589 23.5499C19.0762 23.9446 18.2975 24.088 17.536 23.9591C16.7746 23.8302 16.0702 23.4358 15.5255 22.8333C14.9808 22.2308 14.6242 21.4517 14.5077 20.6094C14.3912 19.7671 14.5208 18.9067 14.8777 18.1516Z" fill="#6D6F79"/>
</svg>
